<svg width="18" height="18" fill="none" xmlns="http://www.w3.org/2000/svg"><path fill="#13A3D7" d="M0 0h18v18H0z"/><path fill-rule="evenodd" clip-rule="evenodd" d="M3 9h1.445c1.135 0 1.803-.788 1.803-2.015V6.98c0-1.224-.67-1.98-1.803-1.98H3v4zm.792-.737V5.734h.558c.695 0 1.09.442 1.09 1.249v.005c0 .836-.382 1.275-1.09 1.275h-.558zM8.252 9c1.124 0 1.824-.769 1.824-1.999v-.005C10.076 5.769 9.374 5 8.251 5c-1.119 0-1.824.766-1.824 1.996v.005c0 1.23.7 1.999 1.825 1.999zm0-.686c-.622 0-1.018-.504-1.018-1.313v-.005c0-.81.399-1.31 1.018-1.31.62 0 1.017.504 1.017 1.31v.005c0 .801-.388 1.313-1.018 1.313zM11.815 9h-.774L10.04 5h.82l.598 2.837h.016L12.17 5h.695l.697 2.837h.016l.6-2.837H15l-1.004 4h-.774l-.694-2.658h-.016L11.815 9zm-3.112 3.85c0 .692-.601 1.16-1.506 1.16-.878 0-1.453-.462-1.507-1.131l-.003-.035h.774l.005.03c.035.276.31.483.728.483.416 0 .685-.223.685-.54v-.005c0-.37-.277-.575-.744-.575h-.443v-.577h.432c.406 0 .669-.215.669-.53v-.005c0-.314-.223-.502-.604-.502-.379 0-.637.196-.669.497l-.003.024h-.744l.003-.032C5.83 10.44 6.375 10 7.19 10c.835 0 1.372.408 1.372 1.018v.005c0 .484-.354.798-.808.892v.016c.574.054.95.387.95.913v.005zm3.61-.844c0 1.233-.596 2.003-1.58 2.003-.982 0-1.578-.77-1.578-2.003v-.005c0-1.233.596-2.001 1.579-2.001s1.579.768 1.579 2v.006zm-2.34 0c0 .851.277 1.354.76 1.354.484 0 .76-.503.76-1.354v-.005c0-.852-.276-1.351-.76-1.351-.483 0-.76.5-.76 1.35v.006z" fill="#fff"/></svg>