<svg width="18" height="18" fill="none" xmlns="http://www.w3.org/2000/svg"><path fill="#D50029" d="M0 0h18v18H0z"/><path fill-rule="evenodd" clip-rule="evenodd" d="M5.383 8.505c.978 0 1.563-.472 1.563-1.215v-.003c0-.609-.365-.939-1.176-1.1l-.411-.083c-.446-.088-.645-.23-.645-.475v-.002c0-.277.25-.467.666-.47.4 0 .68.185.72.489l.003.032h.765l-.003-.051C6.828 4.948 6.277 4.5 5.38 4.5c-.86 0-1.477.467-1.477 1.175v.003c0 .582.387.947 1.152 1.1l.409.08c.48.1.67.23.67.494v.002c0 .295-.281.491-.73.491-.443 0-.762-.187-.813-.488l-.006-.03H3.82l.003.043c.045.714.639 1.135 1.56 1.135zm3.216.003c.491 0 .9-.137 1.22-.373l.278.303h.865v-.013l-.714-.746c.217-.333.333-.748.333-1.258v-.156h-.653v.124c0 .322-.048.584-.142.804l-.747-.78c.559-.303.798-.623.798-1.009v-.003c0-.523-.446-.885-1.074-.885-.64 0-1.104.381-1.104.901v.003c0 .26.124.486.47.88l-.142.078c-.51.276-.739.614-.739 1.046v.003c0 .654.53 1.081 1.351 1.081zM8.33 5.452V5.45c0-.24.183-.413.43-.413.25 0 .424.169.424.413v.002c0 .231-.153.408-.494.593-.252-.273-.36-.416-.36-.593zm-.349 1.91V7.36c0-.23.121-.419.438-.601l.086-.048.905.981a1.18 1.18 0 0 1-.73.247c-.417 0-.699-.228-.699-.577zm4.095 1.076h-.812v-3.87h1.558c.817 0 1.362.525 1.362 1.322v.005c0 .797-.545 1.323-1.362 1.323h-.746v1.22zm1.286-2.546c0-.44-.274-.684-.739-.684h-.547v1.376h.547c.465 0 .739-.246.739-.686v-.006zM8.887 13.5c.972 0 1.563-.77 1.563-2.001v-.006c0-1.231-.59-1.998-1.563-1.998-.975 0-1.566.767-1.566 1.998v.006c0 1.231.591 2.001 1.566 2.001zm0-.65c-.475 0-.744-.5-.744-1.351v-.006c0-.85.269-1.35.744-1.35.473 0 .744.5.744 1.35v.006c0 .85-.271 1.352-.744 1.352zm-3.23.65c.892 0 1.51-.55 1.51-1.36v-.006c0-.73-.537-1.258-1.281-1.258-.395 0-.717.159-.881.419h-.016l.096-1.09H6.93v-.643H4.44l-.18 2.272h.705a.797.797 0 0 1 .188-.215.812.812 0 0 1 .51-.163c.424 0 .728.287.73.695v.005c0 .413-.303.703-.733.703-.379 0-.655-.226-.714-.518l-.003-.019h-.75l.003.04c.046.647.61 1.138 1.461 1.138zm8.08-2.001c0 1.231-.592 2.001-1.564 2.001-.975 0-1.566-.77-1.566-2.001v-.006c0-1.231.591-1.998 1.566-1.998.972 0 1.563.767 1.563 1.998v.006zm-2.308 0c0 .85.269 1.352.744 1.352.473 0 .744-.502.744-1.352v-.006c0-.85-.271-1.35-.744-1.35-.475 0-.744.5-.744 1.35v.006z" fill="#fff"/></svg>